<?xml version="1.0" encoding="utf-8"?>
<!-- Generator: Adobe Illustrator 16.0.0, SVG Export Plug-In . SVG Version: 6.00 Build 0)  -->
<!DOCTYPE svg PUBLIC "-//W3C//DTD SVG 1.1//EN" "http://www.w3.org/Graphics/SVG/1.1/DTD/svg11.dtd">
<svg version="1.1" id="Layer_1" xmlns="http://www.w3.org/2000/svg" xmlns:xlink="http://www.w3.org/1999/xlink" x="0px" y="0px"
	 width="30.564px" height="15px" viewBox="0 0 30.564 15" enable-background="new 0 0 30.564 15" xml:space="preserve">
<g>
	<path d="M2.482,8.275c0.917,0.862,1.852,1.75,2.804,2.664c0.951,0.914,1.913,1.854,2.886,2.818
		c0.048,0.049,0.083,0.101,0.104,0.155C8.296,13.969,8.298,14.03,8.28,14.1c-0.017,0.068-0.059,0.146-0.124,0.232
		S8,14.521,7.882,14.638c-0.11,0.11-0.208,0.194-0.294,0.253c-0.087,0.059-0.161,0.094-0.223,0.104
		c-0.062,0.011-0.117,0.007-0.166-0.01c-0.048-0.018-0.093-0.047-0.134-0.089L0.279,8.121c-0.083-0.09-0.15-0.178-0.201-0.265
		C0.026,7.771,0,7.651,0,7.5c0-0.117,0.021-0.223,0.062-0.315c0.041-0.093,0.113-0.195,0.217-0.306l6.786-6.775
		c0.041-0.041,0.086-0.07,0.134-0.088c0.049-0.017,0.104-0.021,0.166-0.01c0.062,0.01,0.136,0.045,0.223,0.104
		c0.086,0.059,0.184,0.143,0.294,0.253C8,0.479,8.091,0.582,8.156,0.668S8.264,0.832,8.28,0.9C8.298,0.97,8.296,1.03,8.275,1.082
		C8.255,1.133,8.22,1.184,8.172,1.231C7.199,2.204,6.237,3.146,5.286,4.061C4.334,4.975,3.399,5.862,2.482,6.725h27.74
		c0.049,0,0.094,0.014,0.135,0.041s0.078,0.07,0.108,0.129c0.031,0.059,0.056,0.139,0.072,0.238c0.018,0.1,0.026,0.223,0.026,0.367
		s-0.009,0.268-0.026,0.367c-0.017,0.1-0.041,0.18-0.072,0.238c-0.03,0.059-0.067,0.102-0.108,0.129s-0.086,0.041-0.135,0.041H2.482
		z"/>
</g>
</svg>
