<?xml version="1.0" encoding="utf-8"?>
<!-- Generator: Adobe Illustrator 16.0.0, SVG Export Plug-In . SVG Version: 6.00 Build 0)  -->
<!DOCTYPE svg PUBLIC "-//W3C//DTD SVG 1.1//EN" "http://www.w3.org/Graphics/SVG/1.1/DTD/svg11.dtd">
<svg version="1.1" id="Layer_1" xmlns="http://www.w3.org/2000/svg" xmlns:xlink="http://www.w3.org/1999/xlink" x="0px" y="0px"
	 width="15px" height="30.564px" viewBox="0 0 15 30.564" enable-background="new 0 0 15 30.564" xml:space="preserve">
<g>
	<path d="M8.275,28.082c0.862-0.917,1.75-1.852,2.664-2.804c0.914-0.951,1.854-1.913,2.818-2.886
		c0.049-0.048,0.101-0.083,0.155-0.104c0.056-0.021,0.117-0.022,0.187-0.005c0.068,0.017,0.146,0.059,0.232,0.124
		s0.188,0.156,0.306,0.274c0.11,0.11,0.194,0.208,0.253,0.294c0.059,0.087,0.094,0.161,0.104,0.223
		c0.011,0.062,0.007,0.117-0.01,0.166c-0.018,0.048-0.047,0.093-0.089,0.134l-6.774,6.786c-0.09,0.083-0.178,0.15-0.265,0.201
		c-0.086,0.052-0.205,0.078-0.356,0.078c-0.117,0-0.223-0.021-0.315-0.062c-0.093-0.041-0.195-0.113-0.306-0.217l-6.775-6.786
		c-0.041-0.041-0.07-0.086-0.088-0.134c-0.017-0.049-0.021-0.104-0.01-0.166c0.01-0.062,0.045-0.136,0.104-0.223
		c0.059-0.086,0.143-0.184,0.253-0.294c0.117-0.118,0.22-0.209,0.306-0.274s0.164-0.107,0.232-0.124
		c0.069-0.018,0.13-0.016,0.182,0.005c0.051,0.021,0.102,0.056,0.149,0.104c0.973,0.973,1.915,1.935,2.829,2.886
		c0.914,0.952,1.802,1.887,2.664,2.804V0.342c0-0.049,0.014-0.094,0.041-0.135s0.07-0.078,0.129-0.108
		c0.059-0.031,0.139-0.056,0.238-0.072C7.232,0.009,7.355,0,7.5,0s0.268,0.009,0.367,0.026c0.1,0.017,0.18,0.041,0.238,0.072
		c0.059,0.03,0.102,0.067,0.129,0.108s0.041,0.086,0.041,0.135V28.082z"/>
</g>
</svg>
