<?xml version="1.0" encoding="utf-8"?>
<!-- Generator: Adobe Illustrator 16.0.0, SVG Export Plug-In . SVG Version: 6.00 Build 0)  -->
<!DOCTYPE svg PUBLIC "-//W3C//DTD SVG 1.1//EN" "http://www.w3.org/Graphics/SVG/1.1/DTD/svg11.dtd">
<svg version="1.1" id="Layer_1" xmlns="http://www.w3.org/2000/svg" xmlns:xlink="http://www.w3.org/1999/xlink" x="0px" y="0px"
	 width="15px" height="30.564px" viewBox="0 0 15 30.564" enable-background="new 0 0 15 30.564" xml:space="preserve">
<g>
	<path d="M6.725,2.482c-0.862,0.917-1.75,1.852-2.664,2.804C3.146,6.237,2.207,7.199,1.242,8.172
		C1.193,8.22,1.142,8.255,1.087,8.275C1.031,8.296,0.97,8.298,0.9,8.28C0.832,8.264,0.754,8.222,0.668,8.156S0.479,8,0.362,7.882
		c-0.11-0.11-0.194-0.208-0.253-0.294C0.051,7.501,0.016,7.427,0.006,7.365c-0.011-0.062-0.007-0.117,0.01-0.166
		c0.018-0.048,0.047-0.093,0.089-0.134l6.774-6.786c0.09-0.083,0.178-0.15,0.265-0.201C7.229,0.026,7.349,0,7.5,0
		c0.117,0,0.223,0.021,0.315,0.062c0.093,0.041,0.195,0.113,0.306,0.217l6.775,6.786c0.041,0.041,0.07,0.086,0.088,0.134
		c0.017,0.049,0.021,0.104,0.01,0.166c-0.01,0.062-0.045,0.136-0.104,0.223c-0.059,0.086-0.143,0.184-0.253,0.294
		C14.521,8,14.418,8.091,14.332,8.156S14.168,8.264,14.1,8.28c-0.069,0.018-0.13,0.016-0.182-0.005
		c-0.051-0.021-0.102-0.056-0.149-0.104c-0.973-0.973-1.915-1.935-2.829-2.886c-0.914-0.952-1.802-1.887-2.664-2.804v27.74
		c0,0.049-0.014,0.094-0.041,0.135s-0.07,0.078-0.129,0.108c-0.059,0.031-0.139,0.056-0.238,0.072
		c-0.1,0.018-0.223,0.026-0.367,0.026s-0.268-0.009-0.367-0.026c-0.1-0.017-0.18-0.041-0.238-0.072
		c-0.059-0.03-0.102-0.067-0.129-0.108s-0.041-0.086-0.041-0.135V2.482z"/>
</g>
</svg>
