<?xml version="1.0" encoding="utf-8"?>
<!-- Generator: Adobe Illustrator 16.0.0, SVG Export Plug-In . SVG Version: 6.00 Build 0)  -->
<!DOCTYPE svg PUBLIC "-//W3C//DTD SVG 1.1//EN" "http://www.w3.org/Graphics/SVG/1.1/DTD/svg11.dtd">
<svg version="1.1" id="Layer_1" xmlns="http://www.w3.org/2000/svg" xmlns:xlink="http://www.w3.org/1999/xlink" x="0px" y="0px"
	 width="30.564px" height="15px" viewBox="0 0 30.564 15" enable-background="new 0 0 30.564 15" xml:space="preserve">
<g>
	<path d="M28.082,6.725c-0.917-0.862-1.852-1.75-2.804-2.664c-0.951-0.914-1.913-1.854-2.886-2.818
		c-0.048-0.049-0.083-0.101-0.104-0.155C22.269,1.031,22.267,0.97,22.284,0.9c0.017-0.068,0.059-0.146,0.124-0.232
		s0.156-0.188,0.274-0.306c0.11-0.11,0.208-0.194,0.294-0.253c0.087-0.059,0.161-0.094,0.223-0.104
		c0.062-0.011,0.117-0.007,0.166,0.01c0.048,0.018,0.093,0.047,0.134,0.089l6.786,6.774c0.083,0.09,0.15,0.178,0.201,0.265
		c0.052,0.086,0.078,0.205,0.078,0.356c0,0.117-0.021,0.223-0.062,0.315c-0.041,0.093-0.113,0.195-0.217,0.306l-6.786,6.775
		c-0.041,0.041-0.086,0.07-0.134,0.088c-0.049,0.017-0.104,0.021-0.166,0.01c-0.062-0.01-0.136-0.045-0.223-0.104
		c-0.086-0.059-0.184-0.143-0.294-0.253c-0.118-0.117-0.209-0.22-0.274-0.306s-0.107-0.164-0.124-0.232
		c-0.018-0.069-0.016-0.13,0.005-0.182c0.021-0.051,0.056-0.102,0.104-0.149c0.973-0.973,1.935-1.915,2.886-2.829
		c0.952-0.914,1.887-1.802,2.804-2.664H0.342c-0.049,0-0.094-0.014-0.135-0.041s-0.078-0.07-0.108-0.129
		C0.067,8.047,0.043,7.967,0.026,7.867C0.009,7.768,0,7.645,0,7.5s0.009-0.268,0.026-0.367c0.017-0.1,0.041-0.18,0.072-0.238
		c0.03-0.059,0.067-0.102,0.108-0.129s0.086-0.041,0.135-0.041H28.082z"/>
</g>
</svg>
