<?xml version="1.0" encoding="utf-8"?>
<!-- Generator: Adobe Illustrator 16.0.0, SVG Export Plug-In . SVG Version: 6.00 Build 0)  -->
<!DOCTYPE svg PUBLIC "-//W3C//DTD SVG 1.1//EN" "http://www.w3.org/Graphics/SVG/1.1/DTD/svg11.dtd">
<svg version="1.1" id="Layer_1" xmlns="http://www.w3.org/2000/svg" xmlns:xlink="http://www.w3.org/1999/xlink" x="0px" y="0px"
	 width="15.331px" height="15.002px" viewBox="0 0 15.331 15.002" enable-background="new 0 0 15.331 15.002" xml:space="preserve">
<g>
	<g>
		<path d="M9.521,8.277c0.917,0.862,1.852,1.75,2.804,2.664c0.951,0.914,1.913,1.854,2.886,2.818
			c0.048,0.049,0.083,0.101,0.104,0.155c0.021,0.056,0.022,0.117,0.005,0.187c-0.017,0.068-0.059,0.146-0.124,0.232
			s-0.156,0.188-0.274,0.306c-0.11,0.11-0.208,0.194-0.294,0.253c-0.087,0.059-0.161,0.094-0.223,0.104
			c-0.062,0.011-0.117,0.007-0.166-0.01c-0.048-0.018-0.093-0.047-0.134-0.089L7.318,8.123c-0.083-0.09-0.15-0.178-0.201-0.265
			C7.065,7.772,7.039,7.653,7.039,7.502c0-0.117,0.021-0.223,0.062-0.315c0.041-0.093,0.113-0.195,0.217-0.306l6.786-6.775
			c0.041-0.041,0.086-0.07,0.134-0.088c0.049-0.017,0.104-0.021,0.166-0.01c0.062,0.01,0.136,0.045,0.223,0.104
			c0.086,0.059,0.184,0.143,0.294,0.253c0.118,0.117,0.209,0.22,0.274,0.306s0.107,0.164,0.124,0.232
			c0.018,0.069,0.016,0.13-0.005,0.182c-0.021,0.051-0.056,0.102-0.104,0.149c-0.973,0.973-1.935,1.915-2.886,2.829
			c-0.952,0.914-1.887,1.802-2.804,2.664L8.708,7.5L9.521,8.277z"/>
	</g>
	<g>
		<path d="M5.81,6.725c-0.917-0.862-1.852-1.75-2.804-2.664C2.055,3.146,1.093,2.207,0.12,1.242
			C0.072,1.193,0.037,1.142,0.017,1.087C-0.004,1.031-0.006,0.97,0.012,0.9C0.028,0.832,0.07,0.754,0.136,0.668
			S0.292,0.479,0.41,0.362c0.11-0.11,0.208-0.194,0.294-0.253c0.087-0.059,0.161-0.094,0.223-0.104
			c0.062-0.011,0.117-0.007,0.166,0.01c0.048,0.018,0.093,0.047,0.134,0.089l6.786,6.774c0.083,0.09,0.15,0.178,0.201,0.265
			C8.266,7.229,8.292,7.349,8.292,7.5c0,0.117-0.021,0.223-0.062,0.315C8.188,7.908,8.116,8.011,8.013,8.121l-6.786,6.775
			c-0.041,0.041-0.086,0.07-0.134,0.088c-0.049,0.017-0.104,0.021-0.166,0.01c-0.062-0.01-0.136-0.045-0.223-0.104
			c-0.086-0.059-0.184-0.143-0.294-0.253c-0.118-0.117-0.209-0.22-0.274-0.306S0.028,14.168,0.012,14.1
			c-0.018-0.069-0.016-0.13,0.005-0.182c0.021-0.051,0.056-0.102,0.104-0.149c0.973-0.973,1.935-1.915,2.886-2.829
			c0.952-0.914,1.887-1.802,2.804-2.664l0.773-0.713L5.81,6.725z"/>
	</g>
</g>
</svg>
