<?xml version="1.0" encoding="utf-8"?>
<!-- Generator: Adobe Illustrator 16.0.0, SVG Export Plug-In . SVG Version: 6.00 Build 0)  -->
<!DOCTYPE svg PUBLIC "-//W3C//DTD SVG 1.1//EN" "http://www.w3.org/Graphics/SVG/1.1/DTD/svg11.dtd">
<svg version="1.1" id="Layer_1" xmlns="http://www.w3.org/2000/svg" xmlns:xlink="http://www.w3.org/1999/xlink" x="0px" y="0px"
	 width="22.832px" height="22.832px" viewBox="0 0 22.832 22.832" enable-background="new 0 0 22.832 22.832" xml:space="preserve">
<path d="M11.416,0C5.121,0,0,5.121,0,11.416s5.121,11.416,11.416,11.416s11.416-5.121,11.416-11.416S17.711,0,11.416,0z
	 M11.416,21.332c-5.468,0-9.916-4.448-9.916-9.916S5.948,1.5,11.416,1.5s9.916,4.448,9.916,9.916S16.884,21.332,11.416,21.332z"/>
<path d="M12.314,8.997c0-0.387,0-0.478,0.464-0.478h0.975V6.568h-1.459c-1.824,0-2.076,1.099-2.076,2.286l0.003,0.779L9.052,9.636
	v1.949h1.169v4.679h2.091l0.002-4.679l1.26-0.001l0.207-1.95h-1.468L12.314,8.997z"/>
</svg>
