<?xml version="1.0" encoding="utf-8"?>
<!-- Generator: Adobe Illustrator 16.0.0, SVG Export Plug-In . SVG Version: 6.00 Build 0)  -->
<!DOCTYPE svg PUBLIC "-//W3C//DTD SVG 1.1//EN" "http://www.w3.org/Graphics/SVG/1.1/DTD/svg11.dtd">
<svg version="1.1" id="Layer_1" xmlns="http://www.w3.org/2000/svg" xmlns:xlink="http://www.w3.org/1999/xlink" x="0px" y="0px"
	 width="22.832px" height="22.832px" viewBox="0 0 22.832 22.832" enable-background="new 0 0 22.832 22.832" xml:space="preserve">
<path d="M11.416,0C5.121,0,0,5.121,0,11.416s5.121,11.416,11.416,11.416s11.416-5.121,11.416-11.416S17.711,0,11.416,0z
	 M11.416,21.332c-5.468,0-9.916-4.448-9.916-9.916S5.948,1.5,11.416,1.5s9.916,4.448,9.916,9.916S16.884,21.332,11.416,21.332z"/>
<path d="M13.798,11.666c-0.124,1.008-0.973,1.79-2.014,1.79s-1.891-0.782-2.016-1.79H7.121v3.246c0,0.553,0.448,1,1,1h6.992
	c0.552,0,1-0.447,1-1v-3.246H13.798z"/>
<path d="M11.784,9.376c1.041,0,1.89,0.782,2.014,1.79h2.315V7.92c0-0.552-0.448-1-1-1H8.121c-0.552,0-1,0.448-1,1v3.246h2.647
	C9.894,10.158,10.743,9.376,11.784,9.376z"/>
</svg>
