<?xml version="1.0" encoding="utf-8"?>
<!-- Generator: Adobe Illustrator 16.0.0, SVG Export Plug-In . SVG Version: 6.00 Build 0)  -->
<!DOCTYPE svg PUBLIC "-//W3C//DTD SVG 1.1//EN" "http://www.w3.org/Graphics/SVG/1.1/DTD/svg11.dtd">
<svg version="1.1" id="Layer_1" xmlns="http://www.w3.org/2000/svg" xmlns:xlink="http://www.w3.org/1999/xlink" x="0px" y="0px"
	 width="26.244px" height="26.557px" viewBox="0 0 26.244 26.557" enable-background="new 0 0 26.244 26.557" xml:space="preserve">
<path d="M13.749,13.001c1.206-1.381,1.943-3.182,1.943-5.154C15.692,3.52,12.173,0,7.847,0C3.52,0,0,3.52,0,7.847
	s3.52,7.847,7.847,7.847c1.814,0,3.481-0.624,4.812-1.662l12.306,12.306c0.146,0.146,0.338,0.22,0.53,0.22s0.384-0.073,0.53-0.22
	c0.293-0.293,0.293-0.768,0-1.061L13.749,13.001z M7.847,1.5c3.499,0,6.346,2.847,6.346,6.347s-2.847,6.347-6.346,6.347
	c-3.5,0-6.347-2.847-6.347-6.347S4.347,1.5,7.847,1.5z"/>
</svg>
