<?xml version="1.0" encoding="utf-8"?>
<!-- Generator: Adobe Illustrator 16.0.0, SVG Export Plug-In . SVG Version: 6.00 Build 0)  -->
<!DOCTYPE svg PUBLIC "-//W3C//DTD SVG 1.1//EN" "http://www.w3.org/Graphics/SVG/1.1/DTD/svg11.dtd">
<svg version="1.1" id="Layer_1" xmlns="http://www.w3.org/2000/svg" xmlns:xlink="http://www.w3.org/1999/xlink" x="0px" y="0px"
	 width="22.832px" height="22.832px" viewBox="0 0 22.832 22.832" enable-background="new 0 0 22.832 22.832" xml:space="preserve">
<path d="M11.416,0C5.121,0,0,5.121,0,11.416s5.121,11.416,11.416,11.416s11.416-5.121,11.416-11.416S17.711,0,11.416,0z
	 M11.416,21.332c-5.468,0-9.916-4.448-9.916-9.916S5.948,1.5,11.416,1.5s9.916,4.448,9.916,9.916S16.884,21.332,11.416,21.332z"/>
<path d="M17.189,7.375l-1.669,0.209c-0.395-0.565-1.051-0.938-1.796-0.938c-1.21,0-2.191,0.983-2.191,2.191
	c0,0.226,0.034,0.441,0.097,0.646C9.552,9.295,7.715,8.267,6.468,6.736c-0.229,0.39-0.359,0.848-0.359,1.331
	c0,0.92,0.469,1.731,1.18,2.208c-0.436-0.014-0.844-0.134-1.201-0.333c0,0.012,0,0.023,0,0.035c0,1.286,0.914,2.356,2.127,2.6
	c-0.223,0.062-0.457,0.095-0.698,0.095c-0.171,0-0.337-0.017-0.499-0.05c0.261,0.814,0.902,1.452,1.714,1.716
	c-1.464,0.554-3.099,0.688-3.123,0.688c-0.076,0.007-0.14,0.065-0.153,0.141s0.027,0.152,0.098,0.183
	c0.029,0.015,1.9,0.841,4.148,0.838c1.322,0,2.777-0.286,4.062-1.192c3.158-2.225,2.373-5.195,2.178-5.781l1.396-1.557
	c0.047-0.054,0.058-0.129,0.024-0.189C17.327,7.403,17.259,7.368,17.189,7.375z"/>
</svg>
